<svg xmlns="http://www.w3.org/2000/svg" viewBox="0 0 549.05 294.47"><defs><style>.cls-1{fill:#dc3836;}.cls-2{fill:#333;}.cls-3{fill:#fff;}</style></defs><g id="Layer_2" data-name="Layer 2"><g id="Layer_1-2" data-name="Layer 1"><path class="cls-1" d="M148.25,294.47a31.66,31.66,0,0,1-9.16-1.41C128,289.69,121.54,277,124.76,264.75c5.54-21,19.81-33.89,42.41-38.2,5.27-1,7.62-3,9.3-7.9,1.76-5.15,3.68-10.34,5.53-15.36,2.1-5.68,4.26-11.52,6.24-17.42q-3.3,4.5-6.56,9c-6,8.21-12.09,16.7-18.5,24.77-2.28,2.88-4.8,4.41-7.28,4.41-2,0-4.91-1-7.33-5.72-1.47-2.87-4.76-10.19-3.48-16.09,2-9.08,5.23-18,8.4-26.64.62-1.7,1.25-3.41,1.86-5.12a144.35,144.35,0,0,1,7-15.48c1.27-2.52,3.38-5.87,7.11-5.87a8.81,8.81,0,0,1,4.07,1.15c6,3.19,8.4,9,5.9,14.35-1.47,3.17-3,6.37-4.52,9.47-2.47,5.09-5,10.35-7.27,15.63a99.32,99.32,0,0,0-3.75,11.15c-.42,1.42-.83,2.84-1.27,4.25l.63.22c3.06-3.9,6.23-7.78,9.31-11.55,10.67-13.06,21.7-26.56,29.14-42.24,1.09-2.31,2.41-3.44,4-3.44,1.19,0,2.47.63,4,2,5.83,5.08,7.4,12.87,4.32,21.38q-6.18,17.1-12.44,34.16l-6.19,17c-.29.8-.56,1.6-.9,2.59l-.3.87a60.08,60.08,0,0,1,26.53,20.62l.42.57-.42.57c-1.51,2-3.16,3-5,3-1.53,0-3.13-.64-5.2-2.07-5.24-3.62-10-6.73-14.65-9.51a18.41,18.41,0,0,0-4-1.58l-1.55-.48c-.76,2-1.48,4-2.19,6-1.82,5.11-3.54,9.93-5.74,14.64-4,8.62-8.17,17.53-13.57,25.56A24.17,24.17,0,0,1,148.25,294.47ZM168,239.87C150.64,246,140,256.16,135.57,271c-1.77,5.89.32,11.7,3.31,13.23a4.7,4.7,0,0,0,2.17.5h0c2.5,0,6.15-1.77,8.91-6.75,4.89-8.79,9.47-18,13.91-26.81,1.74-3.48,3.49-7,5.26-10.44Z"/><path class="cls-1" d="M52.23,246.87a19,19,0,0,1-5.49-.85,16.52,16.52,0,0,1-10.16-8,15.45,15.45,0,0,1-.48-12.27c3.78-10.82,11.65-19.58,24.74-27.54l1.21,1.48c-1.35,1.46-2.73,2.9-4.11,4.34a130,130,0,0,0-9.19,10.29,49.61,49.61,0,0,0-6.86,12.53,7,7,0,0,0,1.18,6,2.68,2.68,0,0,0,1.66.36,9.53,9.53,0,0,0,4-.89,22.91,22.91,0,0,0,7.53-6c8.84-11.47,13.8-25,14.75-40.33.1-1.72-.67-3.57-1.49-5.52-.26-.62-.53-1.26-.77-1.9-.64.22-1.3.42-1.94.61a15.08,15.08,0,0,0-5.31,2.35c-10.93,9.34-19,21.4-24.62,36.86-2.16,5.94-4.08,12.09-5.94,18-.85,2.72-1.7,5.44-2.57,8.14l-.28.86-.88-.22c-7.71-2-11.48-7-10.34-13.8a257.53,257.53,0,0,1,6.52-28.78c2-6.92,4.4-13.55,6.94-20.58,1-2.73,2-5.48,3-8.27C13.43,167.52.87,155.45,2.6,144.1l.28-1.8,1.33,1.24,2,1.79c1.26,1.13,2.44,2.2,3.53,3.33,8,8.45,16,12.38,25.12,12.38h.91c2.72-.08,3.78-1.14,5.13-3.47,7.93-13.71,15.87-26.92,23.6-39.27a36.13,36.13,0,0,1,8-8.37,21.24,21.24,0,0,1,13.36-5.23c8.49,0,15.3,6.08,17.78,15.85,2.44,9.6-.11,18.4-7.8,26.91-8.23,9.12-19.25,16-32.75,20.48-6.72,2.22-10.32,5.84-12,12.11a25.29,25.29,0,0,1-.86,2.54l.07-.07c2-2,3.72-3.63,5.47-5.25,3.23-3,7.08-6.14,11.93-6.14a12.77,12.77,0,0,1,4.8,1c9.19,3.79,14,9.45,14.15,16.81.57,21.4-7,39.3-22.53,53.18A17.63,17.63,0,0,1,52.23,246.87Zm10.37-91c13.06-5.41,26.06-12.48,33.26-26.94a11.25,11.25,0,0,0,1.1-4.49,5.17,5.17,0,0,0-.92-3.71,1.89,1.89,0,0,0-1.41-.55,5.53,5.53,0,0,0-2.15.56l-.68.31c-3.53,1.6-7.53,3.41-9.79,6.18-5.31,6.53-10.29,13.51-15.12,20.27q-2.64,3.72-5.3,7.4Z"/><path class="cls-1" d="M308.5,204.29c-4.26,0-7.91-2.77-9.53-7.24-2-5.58-2.05-11.87-2.07-18v-.46a27.84,27.84,0,0,1,1.61-7.91c.28-.89.56-1.81.82-2.76l-2.91.33c-3.5.39-6.81.76-10,1.4a4.5,4.5,0,0,0-2.63,2.52c-1.63,5.14-3.15,10.42-4.63,15.53-1,3.29-1.9,6.58-2.88,9.86l-.12.39c-.79,2.67-1.45,4.59-2.87,4.87a4.78,4.78,0,0,1-1,.1,8.64,8.64,0,0,1-5.32-2c-5.61-4.89-7.58-10.09-5.71-15,5.12-13.55,10.7-27.18,16.09-40.36q2.82-6.83,5.59-13.67a6.66,6.66,0,0,1,1-1.52c.11-.14.22-.27.31-.4l.48-.68.74.37c6.7,3.35,10.15,6.46,11.18,10.09.83,2.93.07,6.15-2.41,10.16a81.94,81.94,0,0,0-4.83,9.76c-.57,1.3-1.16,2.64-1.81,4l3.11-.52a97.37,97.37,0,0,0,9.72-2c.85-.24,2-1.5,2.86-3.3,3.45-6.79,6.84-13.76,10.11-20.5L315,134c1.58-3.26,3.57-4.85,6.07-4.85a8,8,0,0,1,3.27.79c5.14,2.32,7.88,7.52,6.13,11.6-1.17,2.72-2.52,5.41-3.83,8A109,109,0,0,0,321.79,160c-2.93,7.73-5.46,15.77-7.9,23.54q-.75,2.39-1.51,4.77a13.78,13.78,0,0,0-.38,3.56v1c7.56-6,12.39-13.15,17.06-20.14,1-1.55,2.08-3.1,3.14-4.63l1.72.83c-3.61,11.88-8.42,24.09-19.08,33A9.76,9.76,0,0,1,308.5,204.29Z"/><path class="cls-1" d="M132.59,239.29a16.33,16.33,0,0,1-16-12.1,65.79,65.79,0,0,1-1.65-11c-.19-2.12-.39-4.32-.72-6.43a11.27,11.27,0,0,0-1.15-3.07l-.3-.62-.73.33a7.06,7.06,0,0,0-2.68,1.69,97.37,97.37,0,0,0-8.42,13.2,76.09,76.09,0,0,0-3.78,9.7c-.49,1.49-1,3-1.53,4.45l-.31.83-.85-.23c-5-1.36-8.39-3.7-10.09-6.95-1.62-3.09-1.64-6.9-.08-11.33,2.67-7.54,5.45-15.18,8.13-22.57,3.33-9.19,6.78-18.69,10.06-28.07.72-2.05,2-4.78,5-4.78a9,9,0,0,1,3.89,1.11c8.69,4.19,9.52,6.14,6.31,14.92-1.06,2.9-2.19,5.75-3.48,9l1.46-1.83c4.08-5.15,7.94-10,11.91-14.63,2.2-2.56,5.16-5.66,8.62-7a16.51,16.51,0,0,1,5.69-1,10.08,10.08,0,0,1,5.08,1.17c2.84,1.72,4.85,6.18,5.16,9.49.62,6.62-7.43,15.49-13.57,16.74a4.78,4.78,0,0,1-1,.1,11.68,11.68,0,0,1-2.93-.5c-.6-.15-1.22-.3-1.86-.4l-1.35-.23,8.7-15.5c-7.11,1.51-18,11.36-23.89,21.75h1.61c10.52,0,12.38,4.53,12.78,15.36l.09,3.13c.09,3.23.18,6.58.58,9.8.79,6.29,2.81,7.13,4.69,7.13a12.91,12.91,0,0,0,5.38-1.63l1.78-.85,3-1.43-.25,1.78c-.77,5.27-3.79,8.63-9,10A17.77,17.77,0,0,1,132.59,239.29Z"/><path class="cls-1" d="M353,193.89c-4.08,0-8.25-2.06-12.06-6-9.89-10.09-8.63-22.16-6.09-32.65a45,45,0,0,0,1.4-12.28c-.47-12.43,12-25.08,25.6-26h1.28c11.67,0,21.57,10.48,21.62,22.9a70.52,70.52,0,0,1-1.46,12.46c-.25,1.47-.52,3-.76,4.53l9.63-4.88,2,2.68-.78.58-3.27,2.41c-2.56,1.88-5.21,3.82-7.71,5.84a25.46,25.46,0,0,0-5.05,5.16c-1.57,2.29-3.06,4.72-4.51,7.07a92.24,92.24,0,0,1-8.4,12.16c-3.41,3.94-7.38,6-11.48,6Zm-1.47-28.8c-1.95,5.71-3.82,11.63-2.06,18,.9,3.24,2.4,3.24,2.89,3.24a5.54,5.54,0,0,0,2.86-1c7-4.33,11-11,14.27-17.62Zm20.06-35.83a11.69,11.69,0,0,0-1.56.11A19.6,19.6,0,0,0,354.23,141c-.43.92.07,3.18.91,4.17,2.41,2.82,3.68,5.54,2,9.67a5,5,0,0,0,1.3,4.08,14.08,14.08,0,0,0,4.82,1.65c.79.18,1.6.37,2.44.6a28,28,0,0,1,2.85-.66c1.92-.38,4.31-.85,4.74-1.75,4.14-8.58,6.55-15.92,4.86-23.88-.81-3.71-3.07-5.66-6.58-5.66Z"/><path class="cls-1" d="M233.61,216.62c-5.71,0-10.94-3.53-14.34-9.7a40.68,40.68,0,0,1-3.51-32c3.18-11,9.79-20.54,19.63-28.46,4.12-3.31,7.25-4.73,10.45-4.73,2.78,0,5.67,1,9.67,3.48.73.45,1.46.92,2.33,1.48l.25.16,1.24-7.93,1.25.79c4.5,2.87,6.77,5.47,7.37,8.44.54,2.7-.37,5.64-2.86,9.23-2.67,3.83-5.75,7.43-8.73,10.91-1.34,1.56-2.67,3.12-4,4.71l-.64.77-2.58-2.3L256,156.15l-.19-.09c-16,14-23.5,27.36-24.41,43.41a12.08,12.08,0,0,0,.51,3.59c.88,3.32,2.17,5,3.82,5a6.73,6.73,0,0,0,3.92-1.9,153.39,153.39,0,0,0,11.81-11.28c1.43-1.46,2.87-2.93,4.32-4.38,1-1,2-2.1,3.08-3.36l1.75-2,2.2-2.44-.53,3.25c-1.7,10.26-14.45,26.37-23.53,29.71A14.78,14.78,0,0,1,233.61,216.62Z"/><path class="cls-1" d="M139.2,143c-3.59,0-7.25-1.67-11.2-5.12-8.34-7.29-11.18-17.08-8.67-29.93,2.75-14.14,10.51-26.52,23.06-36.78a14.12,14.12,0,0,1,9.26-3.4c4.18,0,8.31,1.66,12.3,3.26l1.27.51a16.68,16.68,0,0,1,3.45,2l1,.72.88-.28c-.36-1.87-.66-3.78-1-5.62a73,73,0,0,0-3.17-14c-2.55-6.91-11.85-12.74-20.3-12.74a15.44,15.44,0,0,0-4,.5c-2.41.65-4.58,2.33-6.87,4.11-1,.81-2.12,1.64-3.22,2.37-2.2,1.46-4.79,3-7.7,3a9.29,9.29,0,0,1-4.82-1.43c-3.49-2.06-5.59-5.78-5.24-9.25A6.87,6.87,0,0,1,119.11,35c10.18-3.53,19.7-8.93,28.91-14.15C159.36,14.55,171,8,184,4.64A61.3,61.3,0,0,1,199.11,2.5a41.06,41.06,0,0,1,9.38,1A24.34,24.34,0,0,1,225.83,20c2.25,7.77,0,15.57-6.31,22s-12.45,10.7-18.84,13l-.62.23-2.29-2.61.62-.64c.4-.41.79-.83,1.18-1.25.86-.92,1.75-1.88,2.7-2.75a34.24,34.24,0,0,0,11.48-24.83c.06-1.91-.24-3.16-1-3.92a5,5,0,0,0-3.57-1.16H208c-15.56,0-41.73,8.13-54.81,16.91a1.41,1.41,0,0,0,.4.29c14.16,5.08,22,16,24,33.25,2.49,22-7.39,40.06-16.84,55.29A83.89,83.89,0,0,1,150.62,137C146.82,141,143.08,143,139.2,143Zm-2.76-19.26c.05.92.05,1.69.05,2.36a7.09,7.09,0,0,0,.23,2.47,36.51,36.51,0,0,0,2.29,4.22c.19.32.39.64.58,1l1-.53A11.78,11.78,0,0,0,144,131a94.11,94.11,0,0,0,23.55-44.47A10,10,0,0,0,167,82c-.13-.49-.26-1-.38-1.48-.47.07-1,.13-1.41.18-1.59.19-3.1.36-4,1.09-14.54,11.89-22.88,26-24.76,41.89Z"/><path class="cls-1" d="M405.35,154.88c-.45-.46-1-.88-1.48-1.34a12.17,12.17,0,0,1-3.14-3.52c-4.37-8.76-5-17.23-1.86-25.91C407.43,100.29,416,76,424.19,52.52Q428,41.6,431.86,30.64c.64-1.8,1.21-3.63,1.92-5.95.38-1.23.8-2.6,1.29-4.16l.45-1.4,1.11,1c1.36,1.19,2.81,2.25,4.22,3.28,3.14,2.31,6.12,4.49,7.43,7.51s.6,6.5,0,10l-.12.67c.26-.34.51-.69.77-1a99.86,99.86,0,0,1,7.33-9.2l.8-.87c3.62-3.9,7.71-8.32,13.63-8.32a13.72,13.72,0,0,1,4.36.74c8.58,2.83,15.38,12.47,14.83,21-1.33,21-8.76,36.84-22.72,48.54-4,3.36-8.26,5.07-12.65,5.07A18.49,18.49,0,0,1,446,95.34c-8.49-4.37-11.65-13.64-7.68-22.53,5.71-12.76,17-19.55,28.09-25.4L467.5,49c-1.74,1.56-3.51,3.09-5.28,4.62A159.28,159.28,0,0,0,450.1,64.87a31,31,0,0,0-6.63,11.7c-.59,1.91-.49,3.55.29,4.6a3.21,3.21,0,0,0,2.72,1.2,7.43,7.43,0,0,0,3-.72,24.91,24.91,0,0,0,9-6.71,68.92,68.92,0,0,0,15.66-37c.2-1.84-.51-3.83-1.26-5.94-.23-.67-.47-1.35-.69-2-.68.24-1.38.44-2.07.65-2.16.64-4.2,1.24-5.56,2.49a100.83,100.83,0,0,0-27,39.47c-6,16.21-11.69,32.85-17.21,48.93-3.15,9.21-6.42,18.73-9.7,28.07a11.64,11.64,0,0,1-2.61,3.78c-.45.51-.88,1-1.26,1.48l-.68.88Z"/><path class="cls-1" d="M189.49,131.79c-.55,0-1.11,0-1.67,0-7.68-.47-12.31-4.73-13-12l-.06-.52c-.63-6.16-1.34-13.14.72-18.88C180,87.55,185.88,75,191.55,62.9L193,59.83c1.35-2.88,3.21-4.34,5.53-4.34a9.56,9.56,0,0,1,5.56,2.3,12.92,12.92,0,0,1,3.83,15.87c-1.9,3.85-3.89,7.73-5.82,11.48C199.09,91,196,97,193.19,103c-3.23,6.93-5.8,13.35-4.52,21.36l1.25-.62a12.06,12.06,0,0,0,3.42-2.11l.22-.23a88.75,88.75,0,0,0,10-11.64c5.4-8,5.22-9.83-1.92-19.26l-.73-1L202,89c2.22-1,4.47-2,6.73-2.93A164.71,164.71,0,0,0,225,78.44c2.57-1.45,4.6-4.23,6.56-6.91.53-.73,1.06-1.45,1.6-2.15a27,27,0,0,0,2.47-4.1c.55-1,1.12-2.12,1.78-3.14,2.18-3.4,4.31-5.66,7.62-5.66A15.05,15.05,0,0,1,250.88,58c4.23,1.83,6.53,3.87,7.25,6.42s-.13,5.34-2.65,8.92c-7.41,10.57-16,25-16.66,42.64,0,.85,0,1.7.1,2.55v.21c6.33-1.3,15.65-9.9,27.75-25.59l1.69.84c-2.65,9.88-8.66,17.85-13.6,23.7a71.83,71.83,0,0,1-11.11,10.73,14.38,14.38,0,0,1-8.67,3.25c-4.52,0-8.27-2.69-10.29-7.38a42.69,42.69,0,0,1-3-19c.3-4.94,1.61-9.77,3-14.89.44-1.57.86-3.18,1.28-4.83l-13.52,7.88c6.67,6.6,7.24,14.38,1.62,22.55-5,7.33-12.39,15.75-24.58,15.75Z"/><path class="cls-1" d="M507.88,86.32c-4.08,0-8.25-2.06-12.06-6-9.89-10.09-8.63-22.17-6.09-32.65a45,45,0,0,0,1.4-12.28c-.47-12.44,12-25.08,25.6-26H518c11.66,0,21.56,10.49,21.61,22.91a69.59,69.59,0,0,1-1.46,12.46c-.25,1.47-.52,3-.76,4.53L547,44.4l2,2.68-.78.58c-1.08.81-2.17,1.6-3.26,2.4-2.56,1.88-5.22,3.82-7.72,5.85a25,25,0,0,0-5,5.16c-1.58,2.29-3.07,4.72-4.52,7.06a89.84,89.84,0,0,1-8.4,12.17c-3.41,3.94-7.38,6-11.48,6Zm-1.47-28.81c-2,5.72-3.82,11.64-2.05,18,.9,3.24,2.39,3.24,2.88,3.24a5.54,5.54,0,0,0,2.86-1c7-4.33,11-11,14.27-17.62Zm20.06-35.83a10.25,10.25,0,0,0-1.56.12,19.6,19.6,0,0,0-15.8,11.67c-.43.92.07,3.18.91,4.17,2.42,2.82,3.68,5.54,2,9.67a5,5,0,0,0,1.3,4.07A14,14,0,0,0,518.14,53c.79.18,1.61.36,2.44.59.88-.26,1.88-.46,2.86-.65,1.91-.38,4.3-.85,4.73-1.75,4.14-8.58,6.55-15.92,4.86-23.88-.79-3.71-3-5.67-6.56-5.67Z"/><path class="cls-1" d="M281.3,120.28c-5.71,0-10.94-3.53-14.34-9.7a40.64,40.64,0,0,1-3.5-31.95c3.18-11,9.78-20.54,19.62-28.46,4.13-3.31,7.25-4.73,10.45-4.73,2.78,0,5.67,1,9.67,3.48.73.44,1.45.91,2.31,1.46l.27.18L307,42.62l1.24.8c4.5,2.87,6.78,5.47,7.37,8.43.54,2.71-.37,5.65-2.86,9.24a136.2,136.2,0,0,1-8.7,10.9c-1.34,1.56-2.67,3.12-4,4.7l-.64.78-2.58-2.31,6.83-15.37-.19-.09c-16,14-23.51,27.37-24.42,43.42a11.77,11.77,0,0,0,.52,3.59c.88,3.32,2.16,5,3.81,5a6.73,6.73,0,0,0,3.92-1.9,153.53,153.53,0,0,0,11.82-11.28c1.43-1.47,2.86-2.94,4.31-4.38,1-1,2-2.11,3.1-3.38l1.73-2,2.2-2.45L310,89.63c-1.69,10.27-14.45,26.37-23.53,29.71A14.69,14.69,0,0,1,281.3,120.28Z"/><path class="cls-1" d="M396.29,109.77a10.84,10.84,0,0,1-5.89-1.63c-8-5.5-11.28-12.94-9.22-20.94,1.82-7.07,4.22-14.1,6.54-20.9.94-2.72,1.87-5.45,2.77-8.18.06-.19.12-.37.19-.56-14.34,15-25.14,32.83-35.61,50.11l-1.15,1.91-.71-.21a17.39,17.39,0,0,1-10.79-8.4c-2.26-4.28-2.54-9.45-.79-15,2.17-6.86,4.93-13.63,7.61-20.18,1.07-2.62,2.14-5.24,3.17-7.87l.42-1c.38-.94.75-1.85,1.05-2.79l-1.25,1.47c-2.6,3.06-5.29,6.22-7.7,9.48-7.58,10.26-15,20.64-22.05,30.84a25.11,25.11,0,0,0-3.73,8.37c-.68,3-2,4.45-3.83,4.45-1.18,0-2.48-.62-4.12-2-6.41-5.24-8.56-12.93-5.91-21.12,4.1-12.63,8.9-25.26,13.55-37.47,1-2.57,2-5.15,2.93-7.72s2.82-6.27,6.76-6.27a9.57,9.57,0,0,1,4,1C340,38.82,343.32,44.61,340.9,50c-2.71,6-5.67,12-8.53,17.86-1.32,2.7-2.65,5.4-3.95,8.1l2.16-2.8c3.9-5.07,7.93-10.31,12.11-15.3s8.64-9.88,13-14.6c1.61-1.76,3.21-3.51,4.8-5.27a7.83,7.83,0,0,1,5.79-2.93c2.65,0,5.15,1.6,7,3,5.85,4.32,7.43,8.6,5,13.46-2.82,5.59-5.75,11.25-8.57,16.72q-3.24,6.24-6.44,12.51a28.73,28.73,0,0,0-1.56,3.55l3-4c4.28-5.67,8.71-11.53,13.34-17.08,6.52-7.83,13.69-15.85,21.93-24.53,2.26-2.38,4.77-4.58,7.81-4.58a8.17,8.17,0,0,1,5.26,2.23c5.57,4.74,7.34,12,4.31,17.58-6.48,12-13,24.46-19.43,37a24,24,0,0,0-2.12,7.83,4,4,0,0,0,1.18,3.11h0a.49.49,0,0,0,.24,0,4.72,4.72,0,0,0,2.66-1.08c8.3-7.76,18.91-18.4,27.33-31.84l1.76.69c-.12.66-.19,1.37-.26,2.12a10.21,10.21,0,0,1-1.27,4.92c-5.71,8.43-11.93,17.43-18.78,26.13a21.42,21.42,0,0,1-9.5,6.47A8.32,8.32,0,0,1,396.29,109.77Z"/><path class="cls-1" d="M333.39,29.86c-2.55-7.28.62-15.76,7.72-20.61a33.4,33.4,0,0,1,19.21-5.64,52.16,52.16,0,0,1,7.6.61c6.28,1,12.59,2.38,18.68,3.74,2.84.64,5.68,1.27,8.53,1.87l2.05.44a59.76,59.76,0,0,0,6.2,1.14,62.11,62.11,0,0,0,7.08.53c6.33,0,10.21-2.06,13-6.89L424,4l.89.78a10.12,10.12,0,0,1,3.75,7.92,9.55,9.55,0,0,1-4.06,7.3A34.22,34.22,0,0,1,411,25.87a54.87,54.87,0,0,1-10.47,1c-8.74,0-17.19-1.92-23.58-3.6A122.32,122.32,0,0,0,362,20.44a42.51,42.51,0,0,0-5.3-.37c-8.13,0-14.48,2.87-19.43,8.75a4.38,4.38,0,0,1-1.58,1.07c-.28.14-.6.29-.94.49l-1,.58Z"/><path class="cls-2" d="M146,292.2a31.66,31.66,0,0,1-9.16-1.41c-11.13-3.37-17.55-16.07-14.33-28.31,5.55-21,19.81-33.89,42.41-38.2,5.28-1,7.62-3,9.3-7.9C176,211.23,177.9,206,179.75,201c2.1-5.68,4.26-11.52,6.24-17.42q-3.3,4.5-6.56,9c-5.94,8.21-12.09,16.7-18.5,24.78-2.28,2.87-4.8,4.4-7.28,4.4-2,0-4.91-1-7.33-5.72-1.47-2.87-4.76-10.19-3.48-16.09,2-9.08,5.23-18,8.4-26.63.62-1.71,1.25-3.42,1.86-5.12a143.62,143.62,0,0,1,7-15.49c1.27-2.52,3.38-5.87,7.11-5.87a8.94,8.94,0,0,1,4.08,1.15c6,3.2,8.39,9,5.89,14.35-1.47,3.18-3,6.37-4.52,9.47-2.47,5.09-5,10.35-7.27,15.63a99.32,99.32,0,0,0-3.75,11.15c-.42,1.42-.83,2.84-1.27,4.25l.63.22c3.06-3.89,6.24-7.78,9.31-11.55C181,178.49,192,165,199.45,149.31c1.09-2.31,2.41-3.43,4-3.43,1.19,0,2.47.63,4,2,5.83,5.08,7.4,12.87,4.32,21.38q-6.2,17.1-12.44,34.16l-6.19,17c-.29.8-.56,1.6-.9,2.59l-.3.87a60.08,60.08,0,0,1,26.53,20.62l.42.57-.42.57c-1.51,2-3.16,3-5,3-1.53,0-3.13-.64-5.2-2.07-5.24-3.62-10-6.73-14.65-9.51a18.81,18.81,0,0,0-4.05-1.58L188,235c-.76,2-1.48,4.05-2.19,6-1.82,5.11-3.54,9.94-5.74,14.64-4,8.62-8.17,17.53-13.57,25.56A24.13,24.13,0,0,1,146,292.2Zm19.74-54.6c-17.35,6.12-28,16.29-32.41,31.08-1.78,5.88.31,11.69,3.3,13.22a4.74,4.74,0,0,0,2.18.5h0c2.49,0,6.14-1.77,8.9-6.75,4.89-8.79,9.47-18,13.91-26.81,1.75-3.48,3.49-7,5.26-10.44Z"/><path class="cls-2" d="M50,244.6a18.61,18.61,0,0,1-5.49-.85,16.54,16.54,0,0,1-10.16-8.06,15.45,15.45,0,0,1-.48-12.27c3.78-10.82,11.65-19.58,24.74-27.54l1.21,1.48c-1.35,1.46-2.73,2.9-4.11,4.35A128.42,128.42,0,0,0,46.48,212a49.61,49.61,0,0,0-6.86,12.53,7,7,0,0,0,1.18,6,2.65,2.65,0,0,0,1.67.36,9.41,9.41,0,0,0,3.94-.89,22.87,22.87,0,0,0,7.53-6c8.84-11.47,13.8-25,14.75-40.33.1-1.72-.67-3.56-1.49-5.52-.26-.62-.53-1.26-.77-1.9-.64.22-1.3.42-1.94.61a15.08,15.08,0,0,0-5.31,2.35c-10.93,9.34-19,21.4-24.62,36.86-2.16,5.94-4.08,12.09-5.94,18-.85,2.72-1.7,5.44-2.57,8.14l-.28.86-.87-.22c-7.72-2-11.49-7-10.35-13.8a257.53,257.53,0,0,1,6.52-28.78c2-6.91,4.4-13.55,6.94-20.58,1-2.73,2-5.48,3-8.27C11.16,165.25-1.4,153.18.33,141.84L.61,140l1.33,1.24c.69.64,1.34,1.23,2,1.79,1.25,1.13,2.43,2.2,3.52,3.34,8,8.44,16,12.37,25.12,12.37h.91c2.72-.08,3.78-1.13,5.13-3.47,7.93-13.71,15.87-26.92,23.6-39.27a36.13,36.13,0,0,1,8-8.37,21.24,21.24,0,0,1,13.36-5.23c8.49,0,15.3,6.08,17.78,15.85,2.44,9.6-.11,18.4-7.8,26.91-8.23,9.12-19.25,16-32.75,20.48-6.72,2.22-10.32,5.85-12,12.11a25.29,25.29,0,0,1-.86,2.54l.07-.07c2-2,3.72-3.63,5.47-5.25,3.23-3,7.08-6.14,11.93-6.14a12.77,12.77,0,0,1,4.8,1c9.19,3.79,14,9.45,14.15,16.81.58,21.41-7,39.3-22.53,53.18A17.62,17.62,0,0,1,50,244.6Zm10.37-91c13.06-5.41,26.06-12.48,33.26-26.94a11.25,11.25,0,0,0,1.1-4.49,5.17,5.17,0,0,0-.92-3.71,1.89,1.89,0,0,0-1.41-.55,5.53,5.53,0,0,0-2.15.56l-.68.31C86,120.39,82,122.2,79.74,125c-5.31,6.53-10.29,13.52-15.12,20.27q-2.64,3.7-5.3,7.4Z"/><path class="cls-2" d="M306.23,202c-4.26,0-7.91-2.77-9.53-7.24-2-5.57-2.05-11.87-2.06-17.95v-.47a27.78,27.78,0,0,1,1.62-7.91c.27-.89.55-1.81.81-2.76l-2.9.33c-3.51.39-6.82.77-10,1.4a4.5,4.5,0,0,0-2.63,2.52c-1.63,5.14-3.15,10.42-4.63,15.53-1,3.29-1.9,6.58-2.88,9.86l-.11.39c-.8,2.67-1.46,4.59-2.88,4.87a4.78,4.78,0,0,1-1,.1,8.64,8.64,0,0,1-5.32-2c-5.61-4.89-7.58-10.09-5.71-15,5.12-13.55,10.7-27.18,16.09-40.35q2.82-6.84,5.59-13.68a6.66,6.66,0,0,1,1-1.52c.11-.14.22-.27.31-.4l.48-.68.75.37c6.69,3.35,10.14,6.47,11.17,10.09.83,2.93.07,6.16-2.41,10.16a81.94,81.94,0,0,0-4.83,9.76c-.57,1.31-1.16,2.64-1.81,4.05l3.11-.53a94.44,94.44,0,0,0,9.72-2c.85-.24,1.95-1.5,2.86-3.3,3.45-6.79,6.84-13.76,10.11-20.5l1.63-3.35c1.58-3.26,3.57-4.85,6.07-4.85a8,8,0,0,1,3.27.8c5.14,2.31,7.89,7.51,6.13,11.59-1.17,2.72-2.52,5.41-3.83,8a110.66,110.66,0,0,0-4.79,10.38c-2.93,7.73-5.46,15.77-7.9,23.55q-.75,2.37-1.51,4.76a14.71,14.71,0,0,0-.38,3.56v1c7.56-5.94,12.39-13.15,17.06-20.14,1-1.55,2.08-3.1,3.14-4.63l1.72.83c-3.61,11.88-8.42,24.09-19.07,33A9.83,9.83,0,0,1,306.23,202Z"/><path class="cls-2" d="M130.32,237a16.33,16.33,0,0,1-16-12.1,66.84,66.84,0,0,1-1.65-11c-.19-2.12-.39-4.31-.72-6.43a11.27,11.27,0,0,0-1.15-3.07l-.3-.62c-.24.12-.49.23-.73.33a6.89,6.89,0,0,0-2.68,1.7A96.71,96.71,0,0,0,98.66,219a75,75,0,0,0-3.76,9.69c-.5,1.49-1,3-1.54,4.45l-.31.83-.85-.23c-5-1.36-8.39-3.7-10.09-6.94s-1.64-6.91-.08-11.34c2.67-7.54,5.45-15.18,8.13-22.57,3.33-9.19,6.78-18.69,10.06-28.07.72-2.05,2-4.78,5-4.78a9.28,9.28,0,0,1,3.89,1.11c8.69,4.19,9.52,6.14,6.31,14.92-1.06,2.9-2.19,5.75-3.48,9l1.46-1.84c4.08-5.15,7.94-10,11.91-14.63,2.2-2.56,5.17-5.66,8.62-7a16.51,16.51,0,0,1,5.69-1,10.08,10.08,0,0,1,5.08,1.17c2.84,1.72,4.85,6.18,5.16,9.49.62,6.62-7.43,15.49-13.57,16.74a4.78,4.78,0,0,1-1,.1,12.22,12.22,0,0,1-2.93-.49c-.6-.15-1.22-.31-1.86-.41l-1.35-.23,8.7-15.5c-7.11,1.51-18,11.36-23.89,21.75h1.62c10.51,0,12.37,4.53,12.77,15.36,0,1,.06,2.09.09,3.13.09,3.23.18,6.58.58,9.8.79,6.29,2.81,7.13,4.69,7.13A12.78,12.78,0,0,0,139.1,227l1.79-.85,3-1.43-.25,1.78c-.77,5.27-3.79,8.63-9,10A17,17,0,0,1,130.32,237Z"/><path class="cls-2" d="M350.71,191.62c-4.08,0-8.25-2-12.06-6-9.89-10.09-8.63-22.16-6.09-32.65a44.91,44.91,0,0,0,1.4-12.27c-.47-12.44,12-25.09,25.6-26h1.28c11.67,0,21.57,10.48,21.62,22.9A70.9,70.9,0,0,1,381,150.06c-.25,1.46-.52,3-.76,4.52l9.63-4.88,2.05,2.68-.78.58-3.27,2.41c-2.56,1.88-5.21,3.82-7.71,5.84a25.48,25.48,0,0,0-5,5.16c-1.58,2.29-3.07,4.72-4.52,7.07a92.24,92.24,0,0,1-8.4,12.16c-3.41,3.94-7.38,6-11.48,6Zm-1.47-28.8c-1.95,5.71-3.82,11.63-2.05,18,.89,3.24,2.39,3.24,2.88,3.24a5.54,5.54,0,0,0,2.86-1c7-4.33,11-10.95,14.27-17.62ZM369.3,127a10.25,10.25,0,0,0-1.56.12,19.55,19.55,0,0,0-15.8,11.66c-.43.92.07,3.18.91,4.17,2.41,2.82,3.68,5.54,2,9.67a5,5,0,0,0,1.3,4.08,14.31,14.31,0,0,0,4.82,1.66c.79.17,1.61.36,2.44.59.88-.27,1.88-.46,2.86-.66,1.91-.38,4.3-.85,4.73-1.75,4.14-8.58,6.55-15.92,4.86-23.88C375.07,129,372.81,127,369.3,127Z"/><path class="cls-2" d="M231.34,214.35c-5.71,0-10.94-3.53-14.34-9.7a40.64,40.64,0,0,1-3.5-32c3.18-11,9.78-20.54,19.62-28.45,4.12-3.32,7.25-4.74,10.45-4.74,2.78,0,5.67,1,9.67,3.48.73.45,1.46.92,2.33,1.48l.25.16,1.24-7.93,1.25.79c4.5,2.87,6.77,5.47,7.37,8.44.54,2.7-.37,5.64-2.86,9.23a138.53,138.53,0,0,1-8.73,10.91c-1.34,1.56-2.67,3.12-4,4.71l-.63.77-2.58-2.3,6.82-15.37-.19-.09c-16,14-23.5,27.36-24.41,43.41a12.19,12.19,0,0,0,.51,3.6c.88,3.31,2.17,5,3.82,5a6.73,6.73,0,0,0,3.92-1.9,155.2,155.2,0,0,0,11.81-11.27c1.43-1.47,2.87-2.94,4.32-4.39,1-1,2-2.1,3.08-3.36l1.75-2,2.2-2.44-.53,3.25c-1.7,10.26-14.45,26.37-23.53,29.71A14.6,14.6,0,0,1,231.34,214.35Z"/><path class="cls-2" d="M136.93,140.7c-3.58,0-7.25-1.67-11.19-5.12-8.35-7.29-11.19-17.08-8.68-29.93,2.75-14.14,10.51-26.52,23.06-36.78a14.17,14.17,0,0,1,9.26-3.4c4.18,0,8.31,1.66,12.3,3.26l1.27.51a16.68,16.68,0,0,1,3.45,2l1,.72.88-.28c-.36-1.87-.66-3.78-1-5.62a73.87,73.87,0,0,0-3.16-14c-2.56-6.91-11.86-12.74-20.31-12.74a15.44,15.44,0,0,0-4,.5c-2.41.65-4.58,2.33-6.87,4.11-1,.81-2.12,1.64-3.21,2.37-2.21,1.46-4.8,3-7.71,3A9.28,9.28,0,0,1,117.29,48c-3.48-2.06-5.59-5.78-5.24-9.25a6.87,6.87,0,0,1,4.88-5.89c10.18-3.53,19.7-8.93,28.91-14.15,11.25-6.38,22.89-13,35.91-16.29A60.81,60.81,0,0,1,196.86.23a40.52,40.52,0,0,1,9.38,1.06,24.31,24.31,0,0,1,17.34,16.48c2.25,7.77,0,15.57-6.31,22s-12.45,10.7-18.84,13l-.62.23-2.29-2.61.62-.63,1.19-1.26c.85-.92,1.74-1.87,2.69-2.75A34.23,34.23,0,0,0,211.5,21c.06-1.91-.24-3.16-1-3.92a5,5,0,0,0-3.5-1.2h-1.16c-15.56,0-41.73,8.13-54.81,16.92a1.52,1.52,0,0,0,.4.28c14.16,5.08,22,16,24,33.25,2.49,22-7.39,40.06-16.84,55.29a84.3,84.3,0,0,1-10.17,13.1C144.55,138.74,140.81,140.7,136.93,140.7Zm-2.76-19.26c.05.92.05,1.69.05,2.36a6.87,6.87,0,0,0,.24,2.47,33.64,33.64,0,0,0,2.28,4.22l.58,1,1.05-.53a11.91,11.91,0,0,0,3.38-2.17,94.12,94.12,0,0,0,23.55-44.5,10,10,0,0,0-.56-4.49c-.13-.48-.26-1-.38-1.48q-.71.12-1.41.18c-1.59.19-3.09.36-4,1.09C144.39,91.44,136.05,105.52,134.17,121.44Z"/><path class="cls-2" d="M403.08,152.61c-.45-.45-.95-.88-1.47-1.34a12.06,12.06,0,0,1-3.15-3.52c-4.37-8.76-5-17.23-1.86-25.91,8.56-23.82,17.08-48.1,25.32-71.59q3.82-10.92,7.68-21.88c.63-1.8,1.2-3.63,1.91-5.95.38-1.23.8-2.6,1.3-4.16l.44-1.39,1.11,1c1.36,1.18,2.81,2.24,4.22,3.27,3.14,2.31,6.12,4.49,7.43,7.51s.6,6.5,0,10l-.12.67c.26-.34.51-.69.77-1A100,100,0,0,1,454,29l.81-.87c3.61-3.9,7.7-8.32,13.62-8.32a14.3,14.3,0,0,1,4.36.74c8.58,2.83,15.38,12.48,14.83,21.05-1.33,21-8.76,36.84-22.71,48.54-4,3.36-8.27,5.07-12.66,5.07A18.45,18.45,0,0,1,443.77,93c-8.49-4.37-11.65-13.64-7.67-22.53,5.7-12.76,17-19.55,28.08-25.4l1.1,1.57c-1.74,1.56-3.51,3.09-5.28,4.63a153.54,153.54,0,0,0-12.12,11.26,31,31,0,0,0-6.63,11.7c-.59,1.91-.49,3.55.29,4.6a3.21,3.21,0,0,0,2.72,1.2,7.43,7.43,0,0,0,3-.72,24.91,24.91,0,0,0,9-6.71,68.87,68.87,0,0,0,15.62-37c.2-1.84-.51-3.83-1.26-5.94-.23-.67-.47-1.35-.69-2-.68.24-1.38.45-2.07.65-2.16.64-4.2,1.24-5.56,2.49a100.83,100.83,0,0,0-27,39.47c-6,16.21-11.69,32.85-17.21,48.93-3.15,9.21-6.42,18.73-9.7,28.07a11.64,11.64,0,0,1-2.61,3.78c-.45.51-.88,1-1.26,1.49l-.67.87Z"/><path class="cls-2" d="M187.22,129.52c-.55,0-1.1,0-1.67-.05-7.68-.47-12.31-4.73-13.05-12l-.06-.52c-.63-6.15-1.34-13.14.72-18.88,4.58-12.78,10.45-25.31,16.12-37.43l1.43-3.06c1.35-2.89,3.21-4.35,5.54-4.35a9.56,9.56,0,0,1,5.55,2.3,12.92,12.92,0,0,1,3.83,15.87c-1.9,3.85-3.89,7.73-5.82,11.48-3,5.83-6.08,11.85-8.89,17.87-3.23,6.93-5.8,13.35-4.52,21.36l1.25-.62a11.84,11.84,0,0,0,3.42-2.11l.22-.23a88.75,88.75,0,0,0,10-11.64c5.4-8,5.22-9.83-1.92-19.26l-.73-1,1.1-.5c2.22-1,4.47-2,6.73-2.93a165,165,0,0,0,16.25-7.68c2.57-1.45,4.6-4.23,6.56-6.91.53-.73,1.06-1.45,1.6-2.14a27.3,27.3,0,0,0,2.43-4.1c.55-1,1.12-2.12,1.78-3.14,2.18-3.4,4.31-5.66,7.62-5.66a15.07,15.07,0,0,1,5.85,1.57c4.23,1.83,6.53,3.87,7.25,6.42s-.13,5.33-2.65,8.91c-7.41,10.57-16,25-16.65,42.64q0,1.27.09,2.55v.21c6.33-1.3,15.65-9.9,27.75-25.58l1.69.84c-2.65,9.87-8.66,17.85-13.6,23.69a71.83,71.83,0,0,1-11.11,10.73,14.38,14.38,0,0,1-8.67,3.25c-4.52,0-8.27-2.69-10.29-7.37a42.55,42.55,0,0,1-3-19c.29-4.94,1.6-9.77,3-14.89.44-1.56.86-3.17,1.28-4.83l-13.49,7.85c6.67,6.6,7.24,14.38,1.62,22.56-5,7.33-12.39,15.74-24.58,15.74Z"/><path class="cls-2" d="M505.62,84.05c-4.09,0-8.26-2.06-12.07-6C483.66,68,484.92,56,487.46,45.45a45,45,0,0,0,1.4-12.28c-.46-12.43,12-25.08,25.61-26h1.28c11.66,0,21.56,10.49,21.61,22.91a70.5,70.5,0,0,1-1.45,12.46c-.26,1.47-.53,3-.77,4.53l9.63-4.88,2.05,2.68-.78.58c-1.08.81-2.17,1.6-3.25,2.4-2.57,1.88-5.22,3.82-7.73,5.85a25.22,25.22,0,0,0-5,5.16c-1.58,2.29-3.07,4.72-4.51,7.07A92.54,92.54,0,0,1,517.1,78c-3.41,3.94-7.38,6-11.48,6Zm-1.48-28.81c-1.95,5.72-3.82,11.64-2.05,18,.9,3.24,2.39,3.24,2.88,3.24a5.54,5.54,0,0,0,2.86-1c7-4.33,11-11,14.27-17.62ZM524.2,19.42a13.63,13.63,0,0,0-1.56.11,19.6,19.6,0,0,0-15.8,11.67c-.43.92.07,3.18.91,4.17,2.42,2.82,3.68,5.54,2,9.67a5,5,0,0,0,1.3,4.08,14.08,14.08,0,0,0,4.82,1.65c.79.18,1.61.37,2.44.59.88-.26,1.88-.46,2.86-.65,1.91-.38,4.3-.85,4.73-1.75,4.14-8.58,6.56-15.92,4.86-23.88C530,21.37,527.71,19.42,524.2,19.42Z"/><path class="cls-2" d="M279,118c-5.71,0-10.94-3.53-14.34-9.7a40.64,40.64,0,0,1-3.5-31.95c3.18-11,9.78-20.54,19.62-28.46,4.13-3.31,7.25-4.73,10.45-4.73,2.78,0,5.67,1,9.67,3.48.73.45,1.45.91,2.31,1.46l.27.18,1.25-7.94,1.24.8c4.5,2.87,6.78,5.47,7.37,8.43.55,2.71-.36,5.65-2.86,9.24a138.53,138.53,0,0,1-8.73,10.91c-1.34,1.56-2.67,3.12-4,4.7l-.64.78-2.58-2.31,6.83-15.36-.19-.1c-16,14-23.51,27.37-24.42,43.42a11.77,11.77,0,0,0,.52,3.59c.88,3.32,2.16,5,3.81,5a6.73,6.73,0,0,0,3.92-1.9,153.53,153.53,0,0,0,11.82-11.28c1.43-1.47,2.86-2.94,4.31-4.38,1-1,2-2.11,3.1-3.37.54-.62,1.11-1.27,1.73-2l2.21-2.45-.54,3.25c-1.69,10.27-14.45,26.37-23.53,29.71A14.58,14.58,0,0,1,279,118Z"/><path class="cls-2" d="M394,107.5a10.84,10.84,0,0,1-5.89-1.63c-8-5.5-11.28-12.94-9.22-20.94,1.82-7.07,4.22-14.1,6.55-20.9.93-2.72,1.86-5.45,2.76-8.18.06-.19.13-.37.19-.56-14.34,15-25.14,32.83-35.61,50.11l-1.15,1.91-.71-.21a17.37,17.37,0,0,1-10.78-8.4c-2.27-4.28-2.55-9.45-.8-15,2.17-6.86,4.93-13.63,7.61-20.18,1.07-2.62,2.14-5.24,3.17-7.87l.42-1c.38-.94.75-1.85,1-2.79l-1.25,1.47c-2.6,3.06-5.29,6.22-7.7,9.48-7.58,10.26-15,20.64-22.05,30.84a25.11,25.11,0,0,0-3.73,8.37c-.68,3-2,4.45-3.83,4.45-1.18,0-2.48-.62-4.11-2-6.41-5.23-8.57-12.93-5.92-21.12,4.1-12.63,8.9-25.26,13.55-37.47,1-2.57,2-5.15,2.93-7.72S322.33,32,326.26,32a9.57,9.57,0,0,1,4,1c7.51,3.58,10.79,9.36,8.37,14.74-2.71,6-5.67,12-8.53,17.86q-2,4.05-4,8.1l2.16-2.8c3.9-5.07,7.93-10.31,12.11-15.3s8.64-9.88,13-14.6c1.61-1.76,3.21-3.51,4.8-5.27A7.82,7.82,0,0,1,364,32.78c2.65,0,5.15,1.6,7,3,5.85,4.33,7.43,8.6,5,13.46-2.82,5.6-5.74,11.25-8.57,16.72q-3.24,6.24-6.43,12.5A30.15,30.15,0,0,0,359.42,82l3-4c4.28-5.67,8.71-11.53,13.34-17.08,6.52-7.83,13.69-15.85,21.93-24.53C400,34,402.46,31.8,405.5,31.8A8.22,8.22,0,0,1,410.77,34c5.56,4.74,7.33,12,4.3,17.58-6.48,12-13,24.46-19.43,37a24,24,0,0,0-2.12,7.83,4.12,4.12,0,0,0,1.18,3.11h0a1,1,0,0,0,.24,0,4.78,4.78,0,0,0,2.66-1.07c8.3-7.77,18.91-18.4,27.33-31.85l1.76.69c-.12.66-.19,1.37-.26,2.13a10.15,10.15,0,0,1-1.27,4.91c-5.71,8.43-11.93,17.43-18.77,26.13a21.53,21.53,0,0,1-9.51,6.47A8.31,8.31,0,0,1,394,107.5Z"/><path class="cls-2" d="M331.12,27.59c-2.55-7.28.62-15.75,7.72-20.61a33.4,33.4,0,0,1,19.21-5.64,50.8,50.8,0,0,1,7.6.61c6.28,1,12.59,2.38,18.68,3.74,2.84.64,5.69,1.27,8.53,1.87l2.05.44a59.76,59.76,0,0,0,6.2,1.14,62.11,62.11,0,0,0,7.08.53c6.33,0,10.21-2.06,13-6.89l.59-1,.89.78a10.12,10.12,0,0,1,3.75,7.92,9.59,9.59,0,0,1-4.09,7.22,34.36,34.36,0,0,1-13.61,5.92,54.87,54.87,0,0,1-10.47,1c-8.74,0-17.19-1.92-23.58-3.6a121.29,121.29,0,0,0-14.89-2.8,40.69,40.69,0,0,0-5.3-.38c-8.13,0-14.48,2.87-19.43,8.76a4.49,4.49,0,0,1-1.58,1.06c-.28.14-.6.29-.93.49l-1,.58Z"/><path class="cls-3" d="M168.29,71.18c-1.37-6.89-1.91-14.09-4.32-20.6-3.3-8.9-16.3-15.3-25.45-12.84-3.78,1-6.94,4.34-10.37,6.62-3.58,2.37-7.08,4.19-11.5,1.56-5.86-3.47-6.74-11.25-.54-13.4,22.7-7.86,41.21-24.44,64.74-30.41,8-2,15.83-3,24-1.09,14.49,3.38,25,22.27,10.57,36.85-5.4,5.48-11.29,10.18-18.49,12.82l-1.26-1.44c1.28-1.32,2.49-2.72,3.84-4a34.87,34.87,0,0,0,11.79-25.5c.12-3.81-1.12-5.95-5.47-6.08-15.54-.44-44,8.15-57.52,17.75a6.51,6.51,0,0,0,1.6,1.31c15.23,5.47,21.59,17.16,23.32,32.45,2.35,20.7-6.32,38-16.7,54.67a82.17,82.17,0,0,1-10.05,13c-7,7.41-13.6,7.52-21.27.82-9-7.86-10.49-18.11-8.37-29,2.9-14.88,11.14-26.74,22.72-36.21,7.2-5.89,14.66-2.34,21.87.52a30.25,30.25,0,0,1,4.7,2.92Zm-36.22,49c.15,2.63-.12,4.09.36,5.23a60.78,60.78,0,0,0,3.4,6.12c1.85-1.09,4.08-1.84,5.49-3.34a94.88,94.88,0,0,0,23.79-44.92c.49-2.24-.71-4.86-1.12-7.3-2.29.51-5.15.32-6.77,1.64-14,11.38-23.16,25.59-25.15,42.6Z"/><path class="cls-3" d="M463.45,44.79c-5.87,5.27-12.1,10.2-17.46,16a32,32,0,0,0-6.85,12.08c-1.69,5.53,2,8.6,7.34,6.25a26,26,0,0,0,9.39-7,69.88,69.88,0,0,0,15.83-37.6c.32-3-1.46-6.22-2.27-9.34-3,1.19-6.7,1.64-8.93,3.69a102.11,102.11,0,0,0-27.23,39.85c-9.41,25.5-17.9,51.35-26.91,77-.66,1.87-2.46,3.34-3.73,5-1.51-1.52-3.53-2.79-4.44-4.61-4-8.07-5-16.31-1.82-25.15,11.17-31.1,22-62.3,33-93.48,1-2.79,1.8-5.65,3.22-10.14,4.42,3.83,9.64,6.39,11.4,10.44,1.65,3.79-.37,9.17-.78,13.89,3.36-4.36,6.49-9.1,10.31-13.19,4.71-5.05,9.5-10.93,17.78-8.2,7.84,2.6,14.7,11.71,14.17,20.09-1.19,18.76-7.56,35.45-22.37,47.86-5.87,4.93-12.82,6.51-20.1,2.76-8-4.14-11-12.87-7.24-21.28C441.27,57.46,452,50.83,463.45,44.79Z"/><path class="cls-3" d="M224,80.2l-16.56,9.64c7.46,6.69,7.74,14.44,2.42,22.19-6.06,8.82-13.58,16-25.4,15.27-7.08-.43-11.44-4.13-12.15-11.14-.64-6.29-1.43-13.28.61-19,5-13.79,11.31-27.1,17.52-40.41,2.16-4.62,5.45-4.81,9.64-1.68a11.87,11.87,0,0,1,3.54,14.67c-4.85,9.82-10.09,19.45-14.72,29.37-3.23,6.93-6.25,14.11-4.36,23.25,2.51-1.42,4.69-2.1,6.08-3.55a91.92,91.92,0,0,0,10.29-12c5.78-8.59,5.32-10.77-1.95-20.38C206.6,83,214.63,80,222,75.81c3.47-2,5.88-6,8.45-9.31,1.71-2.21,2.77-4.93,4.3-7.31,3.64-5.67,6.14-6.39,12.27-3.73,7.51,3.25,8.88,7.23,4.2,13.89-9.15,13-16.23,26.83-16.83,43.16,0,1.3.11,2.6.18,3.91,6.81-.6,16.59-9.49,29.41-26.11-2.4,8.93-7.55,16.39-13.41,23.33a72,72,0,0,1-11,10.59c-6.57,5-14.23,3.82-17.49-3.75A42.15,42.15,0,0,1,219.23,102C219.65,94.93,222.19,88,224,80.2Z"/><path class="cls-3" d="M532.78,47.51l10.58-5.36,1,1.27c-3.68,2.74-7.44,5.38-11,8.27a26.57,26.57,0,0,0-5.23,5.36c-4.37,6.34-7.87,13.38-12.86,19.15-6.7,7.74-14.9,7.4-22.13,0-9-9.23-8.63-20.22-5.84-31.75A46.68,46.68,0,0,0,488.69,32c-.44-11.77,11.52-24.12,24.71-25,11.29-.77,21.81,9.37,21.86,21.9C535.28,34.71,533.75,40.61,532.78,47.51Zm-15.59,3.66c2.85-.92,7.51-1.06,8.45-3,3.67-7.6,6.8-15.73,4.93-24.5-1-4.67-4.24-7-9.2-6.3a20.56,20.56,0,0,0-16.54,12.22c-.62,1.34,0,4,1.06,5.21,2.32,2.71,3.29,5.08,1.83,8.68-.56,1.37.41,4.39,1.66,5.23C511.41,50.1,514.24,50.32,517.19,51.17ZM502.35,53c-2.08,6.09-4.25,12.4-2.33,19.34,1.17,4.2,3.73,4.92,7.18,2.77,7.44-4.63,11.64-11.7,15.21-19.21Z"/><path class="cls-3" d="M294.62,71.45q3.48-7.77,6.92-15.58l-1.6-.77c-13.61,11.78-24.14,25.39-25.23,44.5a12.86,12.86,0,0,0,.55,3.9c1.58,5.94,4.62,7.44,9.28,3.59,5.78-4.78,10.86-10.41,16.2-15.72,1.57-1.56,3-3.28,4.86-5.36-1.68,10.21-14.24,25.77-22.9,29-6.95,2.55-14-.53-18.29-8.33A39.67,39.67,0,0,1,261,75.42c3.32-11.43,10.11-20.58,19.3-28,7.11-5.71,11.29-5.89,19-1.18,1.11.68,2.2,1.4,3.81,2.43l1.25-7.94c7.75,4.94,9.09,9.32,4.23,16.31-3.8,5.47-8.4,10.39-12.65,15.55Z"/><path class="cls-3" d="M350.08,105c-9.66-2.87-14.28-11.58-10.94-22.13,3-9.51,7.1-18.69,10.77-28,.93-2.37,2-4.67,2.17-7.6-3.79,4.59-7.8,9-11.33,13.8Q329.5,76.32,318.68,91.92a26.3,26.3,0,0,0-3.88,8.7c-1.13,4.91-3.6,4.24-6.39,2-6.51-5.32-8-12.76-5.6-20.07,4.93-15.23,10.79-30.17,16.46-45.15,1.58-4.19,4-7.29,9.44-4.71,6.75,3.22,10.21,8.35,7.91,13.48-4,8.77-8.34,17.36-12.52,26A11.34,11.34,0,0,0,322.73,77C328.48,69.65,334,62.15,340,55c5.69-6.8,11.79-13.25,17.74-19.83,3.89-4.3,7.75-2.61,11.53.19,5.39,4,7,7.78,4.7,12.25-4.93,9.78-10,19.47-15,29.22A23.38,23.38,0,0,0,356.34,85c6.33-8.21,12.42-16.63,19.06-24.59,7-8.41,14.35-16.55,21.89-24.48,3.07-3.24,6.82-6.48,11.74-2.29,5.31,4.52,6.84,11.29,4.09,16.39q-10,18.42-19.44,37.06a25.38,25.38,0,0,0-2.22,8.15,4.91,4.91,0,0,0,1.64,4.06c.85.51,3.09-.27,4.06-1.17,10.22-9.57,19.76-19.72,27.48-32-.42,2.25-.2,4.94-1.38,6.68-6,8.86-12.13,17.67-18.74,26.08a20.81,20.81,0,0,1-9.07,6.15,10,10,0,0,1-7.91-1.06c-6.84-4.71-11-11.43-8.83-19.91,2.52-9.82,6.12-19.37,9.29-29a14.33,14.33,0,0,0,1.17-4.16C373.08,66.72,361.61,85.92,350.08,105Z"/><path class="cls-3" d="M330.9,26.07c-2.42-6.88.72-15,7.35-19.49,7.95-5.43,17-6.28,26.12-4.87s18.11,3.7,27.16,5.59c2.77.58,5.54,1.29,8.34,1.6,8,.91,16.11,1.7,21-6.84,4.54,4,4.72,9.87-.28,13.64a33.12,33.12,0,0,1-13.21,5.75c-11.34,2.22-22.54.31-33.62-2.6a122.75,122.75,0,0,0-15-2.83c-9.92-1.33-18.82.64-25.61,8.71A9,9,0,0,1,330.9,26.07Z"/><path class="cls-3" d="M160.2,203.11c13.76-17.62,29.25-34,39-54.52,1.83-3.85,3.91-3.44,6.56-1.14,5.52,4.81,7,12.12,4,20.33q-9.27,25.59-18.63,51.11c-.44,1.23-.85,2.47-1.51,4.36a58.93,58.93,0,0,1,27,20.62c-2.84,3.8-5.71,2.92-8.9.72-4.81-3.33-9.71-6.54-14.71-9.55-1.85-1.12-4.12-1.54-6.67-2.45-2.83,7.49-5.07,14.7-8.23,21.48-4.05,8.69-8.17,17.5-13.5,25.43-6.56,9.76-17.38,12.64-28.65,9.23-10.41-3.15-16.8-15.25-13.67-27.14,5.66-21.47,20.4-33.44,41.65-37.49,5.59-1.07,8.22-3.23,10-8.54,4.39-12.82,9.54-25.37,13.63-38.54-.88,1.21-1.75,2.42-2.64,3.62-8.6,11.71-16.92,23.64-26,35-4.57,5.77-9.68,5.33-13-1.15-2.36-4.61-4.42-10.71-3.39-15.45,2.33-10.78,6.46-21.2,10.23-31.63a141.94,141.94,0,0,1,7-15.38c2-4,4.74-7,9.87-4.3,5.46,2.9,7.77,8.12,5.47,13.09-3.89,8.4-8.17,16.62-11.8,25.13-2.25,5.26-3.59,10.9-5.34,16.37ZM167,237l-2.22-1.57c-15.91,5.51-28.36,14.84-33.49,31.87-1.84,6.08.17,12.51,3.79,14.36s8.87-.36,12.36-6.64C154.32,262.53,160.48,249.66,167,237Z"/><path class="cls-3" d="M31.08,169.64C11.4,163.78-1.57,152.1.15,140.85c2.1,1.94,3.87,3.42,5.44,5.08,7.3,7.66,15.63,13,26.76,12.66,3.08-.09,4.44-1.34,5.94-4q11.46-19.81,23.58-39.25a35.67,35.67,0,0,1,7.81-8.13c11.81-9.66,25.8-4.83,29.59,10.11,2.57,10.14-.88,18.61-7.58,26-8.84,9.79-20.07,16.14-32.34,20.21-6.88,2.28-10.83,6.09-12.64,12.77-.48,1.78-1.27,3.47-2.45,6.59,3.59-3.47,6.11-6,8.72-8.4,4.45-4.1,9.21-7.64,15.7-5,7.2,3,13.35,7.82,13.56,15.94C82.8,206.2,75.61,224.05,60,238a16.35,16.35,0,0,1-16.41,3.7c-8.79-2.72-13-10.41-10-19.08,4.3-12.29,13.5-20.45,24.34-27-4.49,4.87-9.32,9.47-13.36,14.69a50.37,50.37,0,0,0-7,12.79c-.76,2-.06,5.6,1.4,7,1.13,1.1,4.82.63,6.73-.37a24,24,0,0,0,7.85-6.32c9.25-12,14-25.82,14.94-40.85.18-2.85-1.69-5.82-2.62-8.73-2.85,1.12-6.27,1.59-8.47,3.47-11.75,10.05-19.65,22.86-24.9,37.27-3.15,8.64-5.71,17.49-8.52,26.21-7-1.77-10.73-6.14-9.63-12.71a255.38,255.38,0,0,1,6.49-28.66C23.74,189.45,27.55,179.79,31.08,169.64Zm25.83-18,2.07,2c14.1-5.79,27.08-13,34.34-27.64a12.36,12.36,0,0,0,1.2-4.89c.15-4-1.68-6.5-5.85-4.61-3.86,1.76-8.26,3.63-10.81,6.76-7.42,9.08-14,18.85-21,28.35Z"/><path class="cls-3" d="M282.45,161.59c5.94-1.07,10.43-1.62,14.74-2.82,1.42-.39,2.7-2.28,3.47-3.79,4-7.9,7.86-15.89,11.74-23.86,1.7-3.5,4-5.44,8.08-3.6,4.41,2,7.24,6.62,5.64,10.33-2.68,6.23-6.24,12.11-8.64,18.43-3.53,9.31-6.41,18.87-9.42,28.37-.53,1.66-.33,3.55-.58,6.86,10.43-7.54,15.81-17.21,22.08-26.24-3.73,12.27-8.57,24-18.77,32.52-4.83,4-11.89,2.23-14.32-4.47-2-5.56-2-12-2-18.1,0-3.62,1.63-7.25,2.76-11.79-5.24.64-9.88,1-14.42,1.91a5.41,5.41,0,0,0-3.37,3.17c-2.66,8.42-5,17-7.51,25.41-.5,1.69-1.22,4.38-2.25,4.59a7.36,7.36,0,0,1-5.53-1.67c-4.17-3.63-7.5-8.53-5.44-14,6.85-18.14,14.37-36,21.67-54a8.82,8.82,0,0,1,1.18-1.73c11.37,5.69,13.39,10.76,8.38,18.88C287.19,150.44,285.36,155.43,282.45,161.59Z"/><path class="cls-3" d="M107.54,189.58c6.46-8,11.72-14.91,17.36-21.47,2.3-2.67,5.08-5.5,8.23-6.72,3-1.14,7.44-1.43,9.93.08s4.4,5.62,4.7,8.76c.55,5.91-6.88,14.49-12.81,15.7-1.57.32-3.37-.47-5.41-.81,3.12-5.57,5.84-10.41,9-15.93-8,0-21.41,12.52-27.31,24,12-.71,14.62,1.84,15.08,14.32.16,4.35.14,8.72.68,13,1,8.06,4.31,9.75,11.45,6.24.82-.4,1.65-.78,3.19-1.5-.81,5.54-4.09,8.09-8.29,9.18a15.6,15.6,0,0,1-19.18-10.87c-1.5-5.58-1.47-11.56-2.35-17.33-.25-1.68-1.27-3.25-1.94-4.87-1.58.91-3.67,1.44-4.65,2.78a97.74,97.74,0,0,0-8.51,13.33c-2.25,4.5-3.59,9.46-5.34,14.24-9.14-2.49-12.59-8.32-9.51-17C87.8,197.75,94.08,181,100,164c1.52-4.36,3.58-5,7.55-3.13,8.18,3.94,8.9,5.29,5.82,13.72C111.71,179.15,109.87,183.62,107.54,189.58Z"/><path class="cls-3" d="M377.88,155.15l10.58-5.36,1,1.26c-3.68,2.75-7.44,5.39-11,8.28a26.57,26.57,0,0,0-5.23,5.36c-4.37,6.34-7.87,13.38-12.86,19.14-6.7,7.75-14.9,7.41-22.13,0-9-9.22-8.63-20.21-5.84-31.74a46.17,46.17,0,0,0,1.43-12.55c-.44-11.76,11.52-24.11,24.71-25,11.29-.78,21.81,9.36,21.86,21.9C380.38,142.35,378.85,148.25,377.88,155.15Zm-15.59,3.66c2.84-.93,7.51-1.06,8.45-3,3.67-7.61,6.8-15.73,4.93-24.51-1-4.66-4.24-7-9.2-6.29a20.56,20.56,0,0,0-16.54,12.21c-.62,1.33,0,4,1.06,5.2,2.32,2.72,3.29,5.09,1.83,8.69-.56,1.37.41,4.38,1.66,5.23C356.51,157.74,359.34,158,362.29,158.81Zm-14.84,1.8c-2.08,6.08-4.26,12.39-2.33,19.34,1.17,4.2,3.73,4.92,7.18,2.77,7.44-4.63,11.64-11.7,15.21-19.21Z"/><path class="cls-3" d="M246.93,167.86q3.48-7.77,6.92-15.58l-1.6-.77C238.63,163.29,228.11,176.9,227,196a12.86,12.86,0,0,0,.55,3.9c1.58,5.94,4.62,7.44,9.28,3.59,5.78-4.78,10.86-10.41,16.2-15.72,1.56-1.56,3-3.28,4.86-5.36-1.68,10.21-14.24,25.77-22.91,29-6.95,2.55-14-.53-18.29-8.33a39.62,39.62,0,0,1-3.42-31.22c3.31-11.43,10.11-20.58,19.3-28,7.11-5.71,11.28-5.89,19-1.18,1.11.68,2.19,1.4,3.81,2.43l1.24-7.94c7.76,4.94,9.09,9.32,4.24,16.31-3.8,5.47-8.41,10.39-12.66,15.55Z"/></g></g></svg>